<svg width="100" height="100" viewBox="0 0 100 100" fill="none" xmlns="http://www.w3.org/2000/svg">
<path d="M78.8504 50C78.8504 48.9955 78.5156 48.1584 77.8459 47.4888L72.7678 42.4107L52.5669 22.2098C51.8973 21.5401 51.0602 21.2053 50.0558 21.2053C49.0513 21.2053 48.2142 21.5401 47.5446 22.2098L42.4665 27.2879C41.7968 27.9576 41.462 28.7946 41.462 29.7991C41.462 30.8035 41.7968 31.6406 42.4665 32.3102L53.0134 42.8571H25C24.0327 42.8571 23.1957 43.2105 22.4888 43.9174C21.782 44.6242 21.4285 45.4613 21.4285 46.4285V53.5714C21.4285 54.5387 21.782 55.3757 22.4888 56.0826C23.1957 56.7894 24.0327 57.1428 25 57.1428H53.0134L42.4665 67.6897C41.7596 68.3965 41.4062 69.2336 41.4062 70.2009C41.4062 71.1681 41.7596 72.0052 42.4665 72.712L47.5446 77.7901C48.2142 78.4598 49.0513 78.7946 50.0558 78.7946C51.0602 78.7946 51.8973 78.4598 52.5669 77.7901L72.7678 57.5892L77.8459 52.5111C78.5156 51.8415 78.8504 51.0044 78.8504 50ZM92.8571 50C92.8571 57.7753 90.9412 64.946 87.1093 71.5122C83.2775 78.0785 78.0785 83.2775 71.5122 87.1093C64.946 90.9412 57.7753 92.8571 50 92.8571C42.2247 92.8571 35.0539 90.9412 28.4877 87.1093C21.9215 83.2775 16.7224 78.0785 12.8906 71.5122C9.05875 64.946 7.14282 57.7753 7.14282 50C7.14282 42.2247 9.05875 35.0539 12.8906 28.4877C16.7224 21.9215 21.9215 16.7224 28.4877 12.8906C35.0539 9.05875 42.2247 7.14282 50 7.14282C57.7753 7.14282 64.946 9.05875 71.5122 12.8906C78.0785 16.7224 83.2775 21.9215 87.1093 28.4877C90.9412 35.0539 92.8571 42.2247 92.8571 50Z" fill="white"/>
</svg>
